<?xml version="1.0" encoding="UTF-8" standalone="no"?><!-- Generator: Gravit.io --><svg xmlns="http://www.w3.org/2000/svg" xmlns:xlink="http://www.w3.org/1999/xlink" style="isolation:isolate" viewBox="0 0 40 120" width="40pt" height="120pt"><defs><clipPath id="_clipPath_5iREVNYqIkyDCiwHiQZ1YjUq9cHBYkVo"><rect width="40" height="120"/></clipPath></defs><g clip-path="url(#_clipPath_5iREVNYqIkyDCiwHiQZ1YjUq9cHBYkVo)"><path d=" M 20 10 L 32 30 L 32.5 95 L 27 110 L 20 110 M 20 10 L 8 30 L 7.5 95 L 13 110 L 20 110" fill-rule="evenodd" fill="rgb(11,61,147)" vector-effect="non-scaling-stroke" stroke-width="3" stroke="rgb(255,255,255)" stroke-linejoin="miter" stroke-linecap="square" stroke-miterlimit="3"/><circle vector-effect="non-scaling-stroke" cx="20" cy="47.24999999999997" r="5" fill="rgb(11,61,147)" stroke-width="2" stroke="rgb(255,255,255)" stroke-linejoin="miter" stroke-linecap="butt" stroke-miterlimit="3"/><path d=" M 31.078 74.285 Q 30.237 78.57 27.246 81 Q 23.871 83.742 20 84 M 8.9 74.285 Q 9.741 78.57 12.732 81 Q 16.107 83.742 19.978 84" fill-rule="evenodd" fill="none" vector-effect="non-scaling-stroke" stroke-width="1" stroke="rgb(255,255,255)" stroke-linejoin="miter" stroke-linecap="square" stroke-miterlimit="3"/><circle vector-effect="non-scaling-stroke" cx="20" cy="66.74999999999997" r="3.5" fill="rgb(11,61,147)" stroke-width="1" stroke="rgb(255,255,255)" stroke-linejoin="miter" stroke-linecap="butt" stroke-miterlimit="3"/><line x1="17.297" y1="51.82" x2="17.297" y2="64" vector-effect="non-scaling-stroke" stroke-width="1" stroke="rgb(255,255,255)" stroke-linejoin="miter" stroke-linecap="square" stroke-miterlimit="3"/><line x1="22.7" y1="51.82" x2="22.7" y2="64" vector-effect="non-scaling-stroke" stroke-width="1" stroke="rgb(255,255,255)" stroke-linejoin="miter" stroke-linecap="square" stroke-miterlimit="3"/><line x1="14.125" y1="108.5" x2="14.5" y2="82.6" vector-effect="non-scaling-stroke" stroke-width="1" stroke="rgb(255,255,255)" stroke-linejoin="miter" stroke-linecap="square" stroke-miterlimit="3"/><line x1="25.5" y1="108.5" x2="25.875" y2="82.6" vector-effect="non-scaling-stroke" stroke-width="1" stroke="rgb(255,255,255)" stroke-linejoin="miter" stroke-linecap="square" stroke-miterlimit="3"/><path d=" M 20 18.281 L 28.055 31.5 L 27.984 37.969 L 30.727 41.344" fill="none" vector-effect="non-scaling-stroke" stroke-width="1" stroke="rgb(255,255,255)" stroke-linejoin="miter" stroke-linecap="square" stroke-miterlimit="3"/><path d=" M 20.227 18.281 L 12.172 31.5 L 12.242 37.969 L 9.5 41.344" fill="none" vector-effect="non-scaling-stroke" stroke-width="1" stroke="rgb(255,255,255)" stroke-linejoin="miter" stroke-linecap="square" stroke-miterlimit="3"/></g></svg>