<?xml version="1.0" encoding="UTF-8" standalone="no"?><!-- Generator: Gravit.io --><svg xmlns="http://www.w3.org/2000/svg" xmlns:xlink="http://www.w3.org/1999/xlink" style="isolation:isolate" viewBox="0 0 30 90" width="30pt" height="90pt"><defs><clipPath id="_clipPath_X0hC76Pheyb7ID6zRirTq7UsNtmM984q"><rect width="30" height="90"/></clipPath></defs><g clip-path="url(#_clipPath_X0hC76Pheyb7ID6zRirTq7UsNtmM984q)"><path d=" M 15 5 Q 17.068 4.957 18.141 5.93 Q 19.266 6.949 23 21.891 L 23 66.75 Q 23.163 70.886 22.734 73.078 C 22.45 74.533 22.1 76.33 21.516 77.109 C 20.531 78.422 19.406 79.5 18.563 79.969 C 16.735 80.984 16.125 80.859 15 81 M 15.045 5 Q 12.977 4.957 11.904 5.93 Q 10.779 6.949 7.045 21.891 L 7.045 66.75 Q 6.882 70.886 7.311 73.078 C 7.595 74.533 7.945 76.33 8.529 77.109 C 9.514 78.422 10.639 79.5 11.483 79.969 C 13.31 80.984 13.92 80.859 15.045 81" fill-rule="evenodd" fill="rgb(11,61,147)" vector-effect="non-scaling-stroke" stroke-width="2" stroke="rgb(255,255,255)" stroke-linejoin="miter" stroke-linecap="square" stroke-miterlimit="3"/><line x1="12.5" y1="15" x2="12.5" y2="17.5" vector-effect="non-scaling-stroke" stroke-width="1" stroke="rgb(255,255,255)" stroke-linejoin="miter" stroke-linecap="square" stroke-miterlimit="3"/><line x1="15.047" y1="75" x2="15" y2="85" vector-effect="non-scaling-stroke" stroke-width="2" stroke="rgb(255,255,255)" stroke-linejoin="miter" stroke-linecap="square" stroke-miterlimit="3"/><path d=" M 15 35 C 16.371 35.105 17.203 35.703 17.938 36.438 C 18.813 37.313 19.102 38.188 19.313 39.875 C 19.523 41.563 19.437 44.318 19.25 46 C 19.063 47.688 18.729 49.32 18.25 51.688 C 17.832 53.757 17.5 54.313 17 55 Q 16.5 55.688 15 56.75 M 15.036 35 C 13.664 35.105 12.833 35.703 12.098 36.438 C 11.223 37.313 10.934 38.188 10.723 39.875 C 10.512 41.563 10.599 44.318 10.786 46 C 10.973 47.688 11.307 49.32 11.786 51.688 C 12.204 53.757 12.587 54.188 13.036 55 Q 13.484 55.813 15 56.75" fill-rule="evenodd" fill="rgb(11,61,147)" vector-effect="non-scaling-stroke" stroke-width="1" stroke="rgb(255,255,255)" stroke-linejoin="miter" stroke-linecap="square" stroke-miterlimit="3"/><line x1="11.5" y1="82" x2="18.5" y2="82" vector-effect="non-scaling-stroke" stroke-width="1" stroke="rgb(255,255,255)" stroke-linejoin="miter" stroke-linecap="square" stroke-miterlimit="3"/><line x1="17.5" y1="15" x2="17.5" y2="17.5" vector-effect="non-scaling-stroke" stroke-width="1" stroke="rgb(255,255,255)" stroke-linejoin="miter" stroke-linecap="square" stroke-miterlimit="3"/><line x1="12.5" y1="20" x2="12.5" y2="22.5" vector-effect="non-scaling-stroke" stroke-width="1" stroke="rgb(255,255,255)" stroke-linejoin="miter" stroke-linecap="square" stroke-miterlimit="3"/><line x1="17.5" y1="20" x2="17.5" y2="22.5" vector-effect="non-scaling-stroke" stroke-width="1" stroke="rgb(255,255,255)" stroke-linejoin="miter" stroke-linecap="square" stroke-miterlimit="3"/><line x1="12.5" y1="25" x2="12.5" y2="27.5" vector-effect="non-scaling-stroke" stroke-width="1" stroke="rgb(255,255,255)" stroke-linejoin="miter" stroke-linecap="square" stroke-miterlimit="3"/><line x1="17.5" y1="25" x2="17.5" y2="27.5" vector-effect="non-scaling-stroke" stroke-width="1" stroke="rgb(255,255,255)" stroke-linejoin="miter" stroke-linecap="square" stroke-miterlimit="3"/><line x1="12.5" y1="30" x2="12.5" y2="32.5" vector-effect="non-scaling-stroke" stroke-width="1" stroke="rgb(255,255,255)" stroke-linejoin="miter" stroke-linecap="square" stroke-miterlimit="3"/><line x1="17.5" y1="30" x2="17.5" y2="32.5" vector-effect="non-scaling-stroke" stroke-width="1" stroke="rgb(255,255,255)" stroke-linejoin="miter" stroke-linecap="square" stroke-miterlimit="3"/><line x1="15.031" y1="35.406" x2="19.188" y2="42.594" vector-effect="non-scaling-stroke" stroke-width="1" stroke="rgb(255,255,255)" stroke-linejoin="miter" stroke-linecap="square" stroke-miterlimit="3"/><line x1="12.563" y1="36.234" x2="18.813" y2="46.75" vector-effect="non-scaling-stroke" stroke-width="1" stroke="rgb(255,255,255)" stroke-linejoin="miter" stroke-linecap="square" stroke-miterlimit="3"/><line x1="11.063" y1="38.813" x2="18.156" y2="50.563" vector-effect="non-scaling-stroke" stroke-width="1" stroke="rgb(255,255,255)" stroke-linejoin="miter" stroke-linecap="square" stroke-miterlimit="3"/><line x1="10.781" y1="43.453" x2="17.219" y2="54.094" vector-effect="non-scaling-stroke" stroke-width="1" stroke="rgb(255,255,255)" stroke-linejoin="miter" stroke-linecap="square" stroke-miterlimit="3"/><line x1="15.056" y1="35.406" x2="10.9" y2="42.594" vector-effect="non-scaling-stroke" stroke-width="1" stroke="rgb(255,255,255)" stroke-linejoin="miter" stroke-linecap="square" stroke-miterlimit="3"/><line x1="17.625" y1="36.281" x2="11.275" y2="46.75" vector-effect="non-scaling-stroke" stroke-width="1" stroke="rgb(255,255,255)" stroke-linejoin="miter" stroke-linecap="square" stroke-miterlimit="3"/><line x1="18.891" y1="39" x2="11.931" y2="50.563" vector-effect="non-scaling-stroke" stroke-width="1" stroke="rgb(255,255,255)" stroke-linejoin="miter" stroke-linecap="square" stroke-miterlimit="3"/><line x1="19.219" y1="43.828" x2="12.869" y2="54.094" vector-effect="non-scaling-stroke" stroke-width="1" stroke="rgb(255,255,255)" stroke-linejoin="miter" stroke-linecap="square" stroke-miterlimit="3"/></g></svg>